<mxfile host="app.diagrams.net" modified="2021-07-10T06:46:18.917Z" agent="5.0 (Windows NT 10.0; Win64; x64) AppleWebKit/537.36 (KHTML, like Gecko) Chrome/76.0.3809.132 Safari/537.36" etag="iPsbmCdDueRk-aYEcJJv" version="14.8.5" type="github">
  <diagram id="gtukw082VmCRvFBYvVIB" name="Page-1">
    <mxGraphModel dx="1221" dy="1823" grid="1" gridSize="10" guides="1" tooltips="1" connect="1" arrows="1" fold="1" page="1" pageScale="1" pageWidth="827" pageHeight="1169" math="0" shadow="0">
      <root>
        <mxCell id="0" />
        <mxCell id="1" parent="0" />
        <mxCell id="6xzVVplBRYgHC24R8ddk-1" value="Task" style="swimlane;fontStyle=2;align=center;verticalAlign=top;childLayout=stackLayout;horizontal=1;startSize=26;horizontalStack=0;resizeParent=1;resizeLast=0;collapsible=1;marginBottom=0;rounded=0;shadow=0;strokeWidth=1;" vertex="1" collapsed="1" parent="1">
          <mxGeometry x="120" y="-100" width="400" height="170" as="geometry">
            <mxRectangle x="70" y="-100" width="790" height="240" as="alternateBounds" />
          </mxGeometry>
        </mxCell>
        <mxCell id="6xzVVplBRYgHC24R8ddk-31" value="&lt;div style=&quot;color: rgb(171 , 178 , 191) ; background-color: rgb(40 , 44 , 52) ; font-family: &amp;#34;consolas&amp;#34; , &amp;#34;courier new&amp;#34; , monospace ; font-size: 14px ; line-height: 19px&quot;&gt;&lt;div style=&quot;font-family: &amp;#34;consolas&amp;#34; , &amp;#34;courier new&amp;#34; , monospace ; line-height: 19px&quot;&gt;&lt;div&gt;&lt;span style=&quot;color: #c678dd&quot;&gt;class&lt;/span&gt;&amp;nbsp;&lt;span style=&quot;color: #e5c07b&quot;&gt;Task&lt;/span&gt;&amp;nbsp;{&lt;/div&gt;&lt;div&gt;&lt;span style=&quot;color: #c678dd&quot;&gt;public:&lt;/span&gt;&lt;/div&gt;&lt;div&gt;&amp;nbsp;&amp;nbsp;&amp;nbsp;&amp;nbsp;&lt;span style=&quot;color: #c678dd&quot;&gt;explicit&lt;/span&gt;&amp;nbsp;&lt;span style=&quot;color: #61afef&quot;&gt;Task&lt;/span&gt;(&lt;span style=&quot;color: #e5c07b&quot;&gt;VideoFrame&lt;/span&gt;::&lt;span style=&quot;color: #e5c07b&quot;&gt;Ptr&lt;/span&gt;&amp;nbsp;&lt;span style=&quot;color: #e06c75 ; font-style: italic&quot;&gt;sharedVideoFrame&lt;/span&gt;,&amp;nbsp;&lt;span style=&quot;color: #c678dd&quot;&gt;float&lt;/span&gt;&amp;nbsp;&lt;span style=&quot;color: #e06c75 ; font-style: italic&quot;&gt;priority&lt;/span&gt;&amp;nbsp;&lt;span style=&quot;color: #c678dd&quot;&gt;=&lt;/span&gt;&amp;nbsp;&lt;span style=&quot;color: #d19a66&quot;&gt;0&lt;/span&gt;):&lt;/div&gt;&lt;div&gt;&amp;nbsp;&amp;nbsp;&amp;nbsp;&amp;nbsp;&amp;nbsp;&amp;nbsp;&amp;nbsp;&amp;nbsp;&lt;span style=&quot;color: #e06c75&quot;&gt;sharedVideoFrame&lt;/span&gt;{&lt;span style=&quot;color: #e06c75 ; font-style: italic&quot;&gt;sharedVideoFrame&lt;/span&gt;},&amp;nbsp;&lt;span style=&quot;color: #e06c75&quot;&gt;priority&lt;/span&gt;{&lt;span style=&quot;color: #e06c75 ; font-style: italic&quot;&gt;priority&lt;/span&gt;}&amp;nbsp;{}&lt;/div&gt;&lt;div&gt;&amp;nbsp;&amp;nbsp;&amp;nbsp;&amp;nbsp;&lt;span style=&quot;color: #c678dd&quot;&gt;virtual&lt;/span&gt;&amp;nbsp;&lt;span style=&quot;color: #c678dd&quot;&gt;bool&lt;/span&gt;&amp;nbsp;&lt;span style=&quot;color: #61afef&quot;&gt;isReady&lt;/span&gt;()&amp;nbsp;&lt;span style=&quot;color: #c678dd&quot;&gt;=&lt;/span&gt;&amp;nbsp;&lt;span style=&quot;color: #d19a66&quot;&gt;0&lt;/span&gt;;&lt;/div&gt;&lt;div&gt;&amp;nbsp;&amp;nbsp;&amp;nbsp;&amp;nbsp;&lt;span style=&quot;color: #c678dd&quot;&gt;virtual&lt;/span&gt;&amp;nbsp;&lt;span style=&quot;color: #c678dd&quot;&gt;void&lt;/span&gt;&amp;nbsp;&lt;span style=&quot;color: #61afef&quot;&gt;process&lt;/span&gt;()&amp;nbsp;&lt;span style=&quot;color: #c678dd&quot;&gt;=&lt;/span&gt;&amp;nbsp;&lt;span style=&quot;color: #d19a66&quot;&gt;0&lt;/span&gt;;&lt;/div&gt;&lt;div&gt;&amp;nbsp;&amp;nbsp;&amp;nbsp;&amp;nbsp;&lt;span style=&quot;color: #c678dd&quot;&gt;virtual&lt;/span&gt;&amp;nbsp;&lt;span style=&quot;color: #61afef&quot;&gt;~Task&lt;/span&gt;()&amp;nbsp;&lt;span style=&quot;color: #c678dd&quot;&gt;=&lt;/span&gt;&amp;nbsp;&lt;span style=&quot;color: #c678dd&quot;&gt;default&lt;/span&gt;;&lt;/div&gt;&lt;br&gt;&lt;div&gt;&amp;nbsp;&amp;nbsp;&amp;nbsp;&amp;nbsp;&lt;span style=&quot;color: #e5c07b&quot;&gt;VideoFrame&lt;/span&gt;::&lt;span style=&quot;color: #e5c07b&quot;&gt;Ptr&lt;/span&gt;&amp;nbsp;&lt;span style=&quot;color: #e06c75&quot;&gt;sharedVideoFrame&lt;/span&gt;;&lt;span style=&quot;color: #7f848e ; font-style: italic&quot;&gt;&amp;nbsp;&amp;nbsp;//&amp;nbsp;it&amp;nbsp;is&amp;nbsp;possible&amp;nbsp;that&amp;nbsp;two&amp;nbsp;tasks&amp;nbsp;try&amp;nbsp;to&amp;nbsp;draw&amp;nbsp;on&amp;nbsp;the&amp;nbsp;same&amp;nbsp;cvMat&lt;/span&gt;&lt;/div&gt;&lt;div&gt;&amp;nbsp;&amp;nbsp;&amp;nbsp;&amp;nbsp;&lt;span style=&quot;color: #c678dd&quot;&gt;const&lt;/span&gt;&amp;nbsp;&lt;span style=&quot;color: #c678dd&quot;&gt;float&lt;/span&gt;&amp;nbsp;&lt;span style=&quot;color: #e06c75&quot;&gt;priority&lt;/span&gt;;&lt;/div&gt;&lt;div&gt;};&lt;/div&gt;&lt;/div&gt;&lt;/div&gt;" style="text;html=1;align=left;verticalAlign=middle;resizable=0;points=[];autosize=1;strokeColor=none;" vertex="1" parent="6xzVVplBRYgHC24R8ddk-1">
          <mxGeometry y="26" width="400" height="210" as="geometry" />
        </mxCell>
        <mxCell id="6xzVVplBRYgHC24R8ddk-7" value="Student" style="swimlane;fontStyle=0;align=center;verticalAlign=top;childLayout=stackLayout;horizontal=1;startSize=26;horizontalStack=0;resizeParent=1;resizeLast=0;collapsible=1;marginBottom=0;rounded=0;shadow=0;strokeWidth=1;" vertex="1" parent="1">
          <mxGeometry x="20" y="260" width="160" height="138" as="geometry">
            <mxRectangle x="130" y="380" width="160" height="26" as="alternateBounds" />
          </mxGeometry>
        </mxCell>
        <mxCell id="6xzVVplBRYgHC24R8ddk-13" value="" style="endArrow=block;endSize=10;endFill=0;shadow=0;strokeWidth=1;rounded=0;edgeStyle=elbowEdgeStyle;elbow=vertical;" edge="1" parent="1" source="6xzVVplBRYgHC24R8ddk-7" target="6xzVVplBRYgHC24R8ddk-1">
          <mxGeometry width="160" relative="1" as="geometry">
            <mxPoint x="100" y="103" as="sourcePoint" />
            <mxPoint x="100" y="103" as="targetPoint" />
          </mxGeometry>
        </mxCell>
        <mxCell id="6xzVVplBRYgHC24R8ddk-14" value="Professor" style="swimlane;fontStyle=0;align=center;verticalAlign=top;childLayout=stackLayout;horizontal=1;startSize=26;horizontalStack=0;resizeParent=1;resizeLast=0;collapsible=1;marginBottom=0;rounded=0;shadow=0;strokeWidth=1;" vertex="1" parent="1">
          <mxGeometry x="300" y="340" width="160" height="70" as="geometry">
            <mxRectangle x="340" y="380" width="170" height="26" as="alternateBounds" />
          </mxGeometry>
        </mxCell>
        <mxCell id="6xzVVplBRYgHC24R8ddk-17" value="" style="endArrow=block;endSize=10;endFill=0;shadow=0;strokeWidth=1;rounded=0;edgeStyle=elbowEdgeStyle;elbow=vertical;" edge="1" parent="1" source="6xzVVplBRYgHC24R8ddk-14" target="6xzVVplBRYgHC24R8ddk-1">
          <mxGeometry width="160" relative="1" as="geometry">
            <mxPoint x="110" y="273" as="sourcePoint" />
            <mxPoint x="210" y="171" as="targetPoint" />
          </mxGeometry>
        </mxCell>
        <mxCell id="6xzVVplBRYgHC24R8ddk-18" value="Address" style="swimlane;fontStyle=0;align=center;verticalAlign=top;childLayout=stackLayout;horizontal=1;startSize=26;horizontalStack=0;resizeParent=1;resizeLast=0;collapsible=1;marginBottom=0;rounded=0;shadow=0;strokeWidth=1;" vertex="1" parent="1">
          <mxGeometry x="760" y="260" width="160" height="216" as="geometry">
            <mxRectangle x="550" y="140" width="160" height="26" as="alternateBounds" />
          </mxGeometry>
        </mxCell>
        <mxCell id="6xzVVplBRYgHC24R8ddk-27" value="" style="endArrow=open;shadow=0;strokeWidth=1;rounded=0;endFill=1;edgeStyle=elbowEdgeStyle;elbow=vertical;" edge="1" parent="1" source="6xzVVplBRYgHC24R8ddk-1" target="6xzVVplBRYgHC24R8ddk-18">
          <mxGeometry x="0.5" y="41" relative="1" as="geometry">
            <mxPoint x="280" y="92" as="sourcePoint" />
            <mxPoint x="440" y="92" as="targetPoint" />
            <mxPoint x="-40" y="32" as="offset" />
          </mxGeometry>
        </mxCell>
        <mxCell id="6xzVVplBRYgHC24R8ddk-28" value="0..1" style="resizable=0;align=left;verticalAlign=bottom;labelBackgroundColor=none;fontSize=12;" connectable="0" vertex="1" parent="6xzVVplBRYgHC24R8ddk-27">
          <mxGeometry x="-1" relative="1" as="geometry">
            <mxPoint y="4" as="offset" />
          </mxGeometry>
        </mxCell>
        <mxCell id="6xzVVplBRYgHC24R8ddk-29" value="1" style="resizable=0;align=right;verticalAlign=bottom;labelBackgroundColor=none;fontSize=12;" connectable="0" vertex="1" parent="6xzVVplBRYgHC24R8ddk-27">
          <mxGeometry x="1" relative="1" as="geometry">
            <mxPoint x="-7" y="4" as="offset" />
          </mxGeometry>
        </mxCell>
        <mxCell id="6xzVVplBRYgHC24R8ddk-30" value="lives at" style="text;html=1;resizable=0;points=[];;align=center;verticalAlign=middle;labelBackgroundColor=none;rounded=0;shadow=0;strokeWidth=1;fontSize=12;" vertex="1" connectable="0" parent="6xzVVplBRYgHC24R8ddk-27">
          <mxGeometry x="0.5" y="49" relative="1" as="geometry">
            <mxPoint x="-38" y="40" as="offset" />
          </mxGeometry>
        </mxCell>
        <mxCell id="6xzVVplBRYgHC24R8ddk-33" value="VideoFrameÂ " style="swimlane;fontStyle=2;align=center;verticalAlign=top;childLayout=stackLayout;horizontal=1;startSize=26;horizontalStack=0;resizeParent=1;resizeLast=0;collapsible=1;marginBottom=0;rounded=0;shadow=0;strokeWidth=1;" vertex="1" collapsed="1" parent="1">
          <mxGeometry x="990" y="-100" width="400" height="170" as="geometry">
            <mxRectangle x="990" y="-100" width="680" height="260" as="alternateBounds" />
          </mxGeometry>
        </mxCell>
        <mxCell id="6xzVVplBRYgHC24R8ddk-34" value="&lt;div style=&quot;color: rgb(171 , 178 , 191) ; background-color: rgb(40 , 44 , 52) ; font-family: &amp;#34;consolas&amp;#34; , &amp;#34;courier new&amp;#34; , monospace ; font-size: 14px ; line-height: 19px&quot;&gt;&lt;div style=&quot;font-family: &amp;#34;consolas&amp;#34; , &amp;#34;courier new&amp;#34; , monospace ; line-height: 19px&quot;&gt;&lt;div style=&quot;font-family: &amp;#34;consolas&amp;#34; , &amp;#34;courier new&amp;#34; , monospace ; line-height: 19px&quot;&gt;&lt;div&gt;&lt;span style=&quot;color: #c678dd&quot;&gt;class&lt;/span&gt;&amp;nbsp;&lt;span style=&quot;color: #e5c07b&quot;&gt;VideoFrame&lt;/span&gt;&amp;nbsp;{&lt;span style=&quot;color: #7f848e ; font-style: italic&quot;&gt;&amp;nbsp;&amp;nbsp;//&amp;nbsp;VideoFrame&amp;nbsp;can&amp;nbsp;represent&amp;nbsp;not&amp;nbsp;a&amp;nbsp;single&amp;nbsp;image&amp;nbsp;but&amp;nbsp;the&amp;nbsp;whole&amp;nbsp;grid&lt;/span&gt;&lt;/div&gt;&lt;div&gt;&lt;span style=&quot;color: #c678dd&quot;&gt;public:&lt;/span&gt;&lt;/div&gt;&lt;div&gt;&amp;nbsp;&amp;nbsp;&amp;nbsp;&amp;nbsp;&lt;span style=&quot;color: #c678dd&quot;&gt;typedef&lt;/span&gt;&amp;nbsp;&lt;span style=&quot;color: #e5c07b&quot;&gt;std&lt;/span&gt;::&lt;span style=&quot;color: #e5c07b&quot;&gt;shared_ptr&lt;/span&gt;&lt;span style=&quot;color: #c678dd&quot;&gt;&amp;lt;&lt;/span&gt;&lt;span style=&quot;color: #e5c07b&quot;&gt;VideoFrame&lt;/span&gt;&lt;span style=&quot;color: #c678dd&quot;&gt;&amp;gt;&lt;/span&gt;&amp;nbsp;&lt;span style=&quot;color: #e5c07b&quot;&gt;Ptr&lt;/span&gt;;&lt;/div&gt;&lt;br&gt;&lt;div&gt;&amp;nbsp;&amp;nbsp;&amp;nbsp;&amp;nbsp;&lt;span style=&quot;color: #61afef&quot;&gt;VideoFrame&lt;/span&gt;(&lt;span style=&quot;color: #c678dd&quot;&gt;unsigned&lt;/span&gt;&amp;nbsp;&lt;span style=&quot;color: #e06c75 ; font-style: italic&quot;&gt;sourceID&lt;/span&gt;,&amp;nbsp;&lt;span style=&quot;color: #e5c07b&quot;&gt;int64_t&lt;/span&gt;&amp;nbsp;&lt;span style=&quot;color: #e06c75 ; font-style: italic&quot;&gt;frameId&lt;/span&gt;,&amp;nbsp;&lt;span style=&quot;color: #c678dd&quot;&gt;const&lt;/span&gt;&amp;nbsp;cv::&lt;span style=&quot;color: #e5c07b&quot;&gt;Mat&lt;/span&gt;&lt;span style=&quot;color: #c678dd&quot;&gt;&amp;amp;&lt;/span&gt;&amp;nbsp;&lt;span style=&quot;color: #e06c75 ; font-style: italic&quot;&gt;frame&lt;/span&gt;&amp;nbsp;&lt;span style=&quot;color: #c678dd&quot;&gt;=&lt;/span&gt;&amp;nbsp;cv::&lt;span style=&quot;color: #e5c07b&quot;&gt;Mat&lt;/span&gt;())&amp;nbsp;:&lt;/div&gt;&lt;div&gt;&amp;nbsp;&amp;nbsp;&amp;nbsp;&amp;nbsp;&amp;nbsp;&amp;nbsp;&amp;nbsp;&amp;nbsp;&lt;span style=&quot;color: #e06c75&quot;&gt;sourceID&lt;/span&gt;{&lt;span style=&quot;color: #e06c75 ; font-style: italic&quot;&gt;sourceID&lt;/span&gt;},&amp;nbsp;&lt;span style=&quot;color: #e06c75&quot;&gt;frameId&lt;/span&gt;{&lt;span style=&quot;color: #e06c75 ; font-style: italic&quot;&gt;frameId&lt;/span&gt;},&amp;nbsp;&lt;span style=&quot;color: #e06c75&quot;&gt;frame&lt;/span&gt;{&lt;span style=&quot;color: #e06c75 ; font-style: italic&quot;&gt;frame&lt;/span&gt;}&amp;nbsp;{}&lt;/div&gt;&lt;div&gt;&amp;nbsp;&amp;nbsp;&amp;nbsp;&amp;nbsp;&lt;span style=&quot;color: #c678dd&quot;&gt;virtual&lt;/span&gt;&amp;nbsp;&lt;span style=&quot;color: #61afef&quot;&gt;~VideoFrame&lt;/span&gt;()&amp;nbsp;&lt;span style=&quot;color: #c678dd&quot;&gt;=&lt;/span&gt;&amp;nbsp;&lt;span style=&quot;color: #c678dd&quot;&gt;default&lt;/span&gt;;&lt;span style=&quot;color: #7f848e ; font-style: italic&quot;&gt;&amp;nbsp;&amp;nbsp;//&amp;nbsp;A&amp;nbsp;user&amp;nbsp;has&amp;nbsp;to&amp;nbsp;define&amp;nbsp;how&amp;nbsp;it&amp;nbsp;is&amp;nbsp;reconstructed&lt;/span&gt;&lt;/div&gt;&lt;br&gt;&lt;div&gt;&amp;nbsp;&amp;nbsp;&amp;nbsp;&amp;nbsp;&lt;span style=&quot;color: #c678dd&quot;&gt;const&lt;/span&gt;&amp;nbsp;&lt;span style=&quot;color: #c678dd&quot;&gt;unsigned&lt;/span&gt;&amp;nbsp;&lt;span style=&quot;color: #e06c75&quot;&gt;sourceID&lt;/span&gt;;&lt;/div&gt;&lt;div&gt;&amp;nbsp;&amp;nbsp;&amp;nbsp;&amp;nbsp;&lt;span style=&quot;color: #c678dd&quot;&gt;const&lt;/span&gt;&amp;nbsp;&lt;span style=&quot;color: #e5c07b&quot;&gt;int64_t&lt;/span&gt;&amp;nbsp;&lt;span style=&quot;color: #e06c75&quot;&gt;frameId&lt;/span&gt;;&lt;/div&gt;&lt;div&gt;&amp;nbsp;&amp;nbsp;&amp;nbsp;&amp;nbsp;cv::Mat&amp;nbsp;&lt;span style=&quot;color: #e06c75&quot;&gt;frame&lt;/span&gt;;&lt;/div&gt;&lt;div&gt;};&lt;/div&gt;&lt;/div&gt;&lt;/div&gt;&lt;/div&gt;" style="text;html=1;align=left;verticalAlign=middle;resizable=0;points=[];autosize=1;strokeColor=none;" vertex="1" parent="6xzVVplBRYgHC24R8ddk-33">
          <mxGeometry y="26" width="400" height="230" as="geometry" />
        </mxCell>
        <mxCell id="6xzVVplBRYgHC24R8ddk-38" style="edgeStyle=orthogonalEdgeStyle;rounded=0;orthogonalLoop=1;jettySize=auto;html=1;endArrow=block;endFill=0;entryX=0.5;entryY=1;entryDx=0;entryDy=0;" edge="1" parent="1" source="6xzVVplBRYgHC24R8ddk-36" target="6xzVVplBRYgHC24R8ddk-33">
          <mxGeometry relative="1" as="geometry">
            <mxPoint x="1110" y="70" as="targetPoint" />
          </mxGeometry>
        </mxCell>
        <mxCell id="6xzVVplBRYgHC24R8ddk-36" value="ReborningVideoFrame" style="swimlane;fontStyle=2;align=center;verticalAlign=top;childLayout=stackLayout;horizontal=1;startSize=26;horizontalStack=0;resizeParent=1;resizeLast=0;collapsible=1;marginBottom=0;rounded=0;shadow=0;strokeWidth=1;" vertex="1" parent="1">
          <mxGeometry x="950" y="199" width="1050" height="260" as="geometry">
            <mxRectangle x="990" y="230" width="400" height="170" as="alternateBounds" />
          </mxGeometry>
        </mxCell>
        <mxCell id="6xzVVplBRYgHC24R8ddk-37" value="&lt;div style=&quot;color: rgb(171 , 178 , 191) ; background-color: rgb(40 , 44 , 52) ; font-family: &amp;#34;consolas&amp;#34; , &amp;#34;courier new&amp;#34; , monospace ; font-size: 14px ; line-height: 19px&quot;&gt;&lt;div style=&quot;font-family: &amp;#34;consolas&amp;#34; , &amp;#34;courier new&amp;#34; , monospace ; line-height: 19px&quot;&gt;&lt;div style=&quot;font-family: &amp;#34;consolas&amp;#34; , &amp;#34;courier new&amp;#34; , monospace ; line-height: 19px&quot;&gt;&lt;div style=&quot;font-family: &amp;#34;consolas&amp;#34; , &amp;#34;courier new&amp;#34; , monospace ; line-height: 19px&quot;&gt;&lt;div&gt;&lt;span style=&quot;color: #c678dd&quot;&gt;class&lt;/span&gt;&amp;nbsp;&lt;span style=&quot;color: #e5c07b&quot;&gt;ReborningVideoFrame&lt;/span&gt;:&amp;nbsp;&lt;span style=&quot;color: #c678dd&quot;&gt;public&lt;/span&gt;&amp;nbsp;&lt;span style=&quot;color: #e5c07b&quot;&gt;VideoFrame&lt;/span&gt;&amp;nbsp;{&lt;/div&gt;&lt;div&gt;&lt;span style=&quot;color: #c678dd&quot;&gt;public:&lt;/span&gt;&lt;/div&gt;&lt;div&gt;&amp;nbsp;&amp;nbsp;&amp;nbsp;&amp;nbsp;&lt;span style=&quot;color: #61afef&quot;&gt;ReborningVideoFrame&lt;/span&gt;(&lt;span style=&quot;color: #e5c07b&quot;&gt;Context&lt;/span&gt;&lt;span style=&quot;color: #c678dd&quot;&gt;&amp;amp;&lt;/span&gt;&amp;nbsp;&lt;span style=&quot;color: #e06c75 ; font-style: italic&quot;&gt;context&lt;/span&gt;,&amp;nbsp;&lt;span style=&quot;color: #c678dd&quot;&gt;const&lt;/span&gt;&amp;nbsp;&lt;span style=&quot;color: #c678dd&quot;&gt;unsigned&lt;/span&gt;&amp;nbsp;&lt;span style=&quot;color: #e06c75 ; font-style: italic&quot;&gt;sourceID&lt;/span&gt;,&amp;nbsp;&lt;span style=&quot;color: #c678dd&quot;&gt;const&lt;/span&gt;&amp;nbsp;&lt;span style=&quot;color: #e5c07b&quot;&gt;int64_t&lt;/span&gt;&amp;nbsp;&lt;span style=&quot;color: #e06c75 ; font-style: italic&quot;&gt;frameId&lt;/span&gt;,&amp;nbsp;&lt;span style=&quot;color: #c678dd&quot;&gt;const&lt;/span&gt;&amp;nbsp;cv::&lt;span style=&quot;color: #e5c07b&quot;&gt;Mat&lt;/span&gt;&lt;span style=&quot;color: #c678dd&quot;&gt;&amp;amp;&lt;/span&gt;&amp;nbsp;&lt;span style=&quot;color: #e06c75 ; font-style: italic&quot;&gt;frame&lt;/span&gt;&amp;nbsp;&lt;span style=&quot;color: #c678dd&quot;&gt;=&lt;/span&gt;&amp;nbsp;cv::&lt;span style=&quot;color: #e5c07b&quot;&gt;Mat&lt;/span&gt;())&amp;nbsp;:&lt;/div&gt;&lt;div&gt;&amp;nbsp;&amp;nbsp;&amp;nbsp;&amp;nbsp;&amp;nbsp;&amp;nbsp;&amp;nbsp;&amp;nbsp;&lt;span style=&quot;color: #e5c07b&quot;&gt;VideoFrame&lt;/span&gt;{&lt;span style=&quot;color: #e06c75 ; font-style: italic&quot;&gt;sourceID&lt;/span&gt;,&amp;nbsp;&lt;span style=&quot;color: #e06c75 ; font-style: italic&quot;&gt;frameId&lt;/span&gt;,&amp;nbsp;&lt;span style=&quot;color: #e06c75 ; font-style: italic&quot;&gt;frame&lt;/span&gt;},&amp;nbsp;&lt;span style=&quot;color: #e06c75&quot;&gt;context&lt;/span&gt;(&lt;span style=&quot;color: #e06c75 ; font-style: italic&quot;&gt;context&lt;/span&gt;)&amp;nbsp;{}&lt;span style=&quot;color: #7f848e ; font-style: italic&quot;&gt;&amp;nbsp;&amp;nbsp;//&amp;nbsp;can&amp;nbsp;not&amp;nbsp;write&amp;nbsp;context{context}&amp;nbsp;because&amp;nbsp;of&amp;nbsp;CentOS&amp;nbsp;7.4&amp;nbsp;compiler&amp;nbsp;bug&lt;/span&gt;&lt;/div&gt;&lt;div&gt;&amp;nbsp;&amp;nbsp;&amp;nbsp;&amp;nbsp;&lt;span style=&quot;color: #c678dd&quot;&gt;virtual&lt;/span&gt;&amp;nbsp;&lt;span style=&quot;color: #61afef&quot;&gt;~ReborningVideoFrame&lt;/span&gt;();&lt;/div&gt;&lt;div&gt;&amp;nbsp;&amp;nbsp;&amp;nbsp;&amp;nbsp;&lt;span style=&quot;color: #e5c07b&quot;&gt;Context&lt;/span&gt;&lt;span style=&quot;color: #c678dd&quot;&gt;&amp;amp;&lt;/span&gt;&amp;nbsp;&lt;span style=&quot;color: #e06c75&quot;&gt;context&lt;/span&gt;;&lt;/div&gt;&lt;div&gt;};&lt;/div&gt;&lt;/div&gt;&lt;/div&gt;&lt;/div&gt;&lt;/div&gt;" style="text;html=1;align=left;verticalAlign=middle;resizable=0;points=[];autosize=1;strokeColor=none;" vertex="1" parent="6xzVVplBRYgHC24R8ddk-36">
          <mxGeometry y="26" width="1050" height="130" as="geometry" />
        </mxCell>
      </root>
    </mxGraphModel>
  </diagram>
</mxfile>
